<svg t="1649229644632" class="icon" viewBox="0 0 1024 1024" version="1.1" xmlns="http://www.w3.org/2000/svg" p-id="4977" width="44" height="44"><path d="M711.3728 540.4672H540.4672v170.9056c0 15.6672-12.6976 28.4672-28.4672 28.4672-15.6672 0-28.4672-12.8-28.4672-28.4672V540.4672H312.6272c-15.6672 0-28.4672-12.6976-28.4672-28.4672 0-15.6672 12.8-28.4672 28.4672-28.4672h170.9056V312.6272c0-15.6672 12.6976-28.4672 28.4672-28.4672 15.6672 0 28.4672 12.8 28.4672 28.4672v170.9056h170.9056c15.6672 0 28.4672 12.6976 28.4672 28.4672-0.1024 15.6672-12.9024 28.4672-28.4672 28.4672M512 56.9344c-251.2896 0-455.0656 203.776-455.0656 455.0656s203.776 455.0656 455.0656 455.0656 455.0656-203.776 455.0656-455.0656S763.2896 56.9344 512 56.9344" fill="#EF6E6E" p-id="4978"></path></svg>