<svg t="1649238862996" class="icon" viewBox="0 0 1024 1024" version="1.1" xmlns="http://www.w3.org/2000/svg" p-id="7711" width="44" height="44"><path d="M619.054545 481.745455a18.618182 18.618182 0 0 0-25.6 13.963636c-4.654545 11.636364 2.327273 23.272727 13.963637 25.6 11.636364 4.654545 23.272727-2.327273 25.6-13.963636 4.654545-9.309091-2.327273-20.945455-13.963637-25.6zM607.418182 463.127273c4.654545-11.636364-2.327273-23.272727-13.963637-25.6a18.618182 18.618182 0 0 0-25.6 13.963636c-4.654545 11.636364 2.327273 23.272727 13.963637 25.6 11.636364 2.327273 23.272727-4.654545 25.6-13.963636zM404.945455 393.309091c-44.218182 0-76.8 34.909091-76.8 76.8 0 44.218182 34.909091 76.8 76.8 76.8 41.890909 0 76.8-34.909091 76.8-76.8 0-41.890909-34.909091-76.8-76.8-76.8z m0 125.672727c-25.6 0-46.545455-20.945455-46.545455-46.545454s20.945455-46.545455 46.545455-46.545455 46.545455 20.945455 46.545454 46.545455-20.945455 46.545455-46.545454 46.545454z" p-id="7712" fill="#6C7CD8"></path><path d="M968.145455 214.109091C930.909091 146.618182 877.381818 93.090909 809.890909 55.854545 742.4 18.618182 663.272727 0 542.254545 0h-62.836363c-118.690909 0-197.818182 18.618182-265.309091 55.854545C146.618182 93.090909 93.090909 146.618182 55.854545 214.109091 18.618182 281.6 0 360.727273 0 481.745455v62.836363c0 118.690909 18.618182 197.818182 55.854545 265.309091C93.090909 877.381818 146.618182 930.909091 214.109091 968.145455c67.490909 37.236364 146.618182 55.854545 265.309091 55.854545h62.836363c118.690909 0 197.818182-18.618182 265.309091-55.854545 67.490909-37.236364 121.018182-90.763636 158.254546-158.254546 37.236364-67.490909 55.854545-146.618182 55.854545-265.309091v-62.836363c2.327273-121.018182-16.290909-200.145455-53.527272-267.636364zM765.672727 744.727273c-74.472727 0-139.636364-121.018182-251.345454-121.018182-137.309091 0-151.272727 123.345455-251.345455 123.345454C144.290909 747.054545 235.054545 325.818182 395.636364 325.818182c90.763636 39.563636 148.945455 44.218182 237.381818 0 128 0 249.018182 418.909091 132.654545 418.909091z" p-id="7713" fill="#7C88F5"></path><path d="M663.272727 444.509091c4.654545-11.636364-2.327273-23.272727-13.963636-25.6a18.618182 18.618182 0 0 0-25.6 13.963636c-4.654545 11.636364 2.327273 23.272727 13.963636 25.6 9.309091 2.327273 20.945455-2.327273 25.6-13.963636zM674.909091 467.781818a18.618182 18.618182 0 0 0-25.6 13.963637c-4.654545 11.636364 2.327273 23.272727 13.963636 25.6 11.636364 4.654545 23.272727-2.327273 25.6-13.963637 2.327273-11.636364-2.327273-23.272727-13.963636-25.6z" p-id="7714" fill="#6C7CD8"></path></svg>