<svg width="64" height="64" viewBox="0 0 64 64" fill="none" xmlns="http://www.w3.org/2000/svg">
<rect width="64" height="64" rx="20" fill="url(#paint0_linear_18_308)"/>
<path d="M41.1667 16.4164C47.2415 16.4164 52.1667 21.3416 52.1667 27.4164V40.2497C52.1668 41.2128 51.9771 42.1664 51.6087 43.0562C51.2402 43.946 50.7 44.7545 50.019 45.4355C49.3381 46.1166 48.5296 46.6568 47.6399 47.0253C46.7501 47.3939 45.7964 47.5836 44.8334 47.5836C43.8703 47.5836 42.9167 47.3939 42.0269 47.0253C41.1371 46.6568 40.3287 46.1166 39.6477 45.4355C38.9668 44.7545 38.4266 43.946 38.0581 43.0562C37.6896 42.1664 37.5 41.2128 37.5 40.2497V38.4164H26.4991L26.5 40.2497C26.5001 41.2128 26.3105 42.1664 25.942 43.0562C25.5735 43.946 25.0333 44.7545 24.3524 45.4355C23.6714 46.1166 22.8629 46.6568 21.9732 47.0253C21.0834 47.3939 20.1298 47.5836 19.1667 47.5836C18.2036 47.5836 17.25 47.3939 16.3602 47.0253C15.4705 46.6568 14.662 46.1166 13.9811 45.4355C13.3001 44.7545 12.7599 43.946 12.3914 43.0562C12.0229 42.1664 11.8333 41.2128 11.8334 40.2497V27.4164C11.8334 21.3416 16.7586 16.4164 22.8334 16.4164H41.1667ZM40.25 19.1664H23.75C18.7725 19.1664 14.7227 23.1328 14.587 28.0764L14.5834 28.333V40.2497C14.5849 41.447 15.0549 42.5962 15.8929 43.4515C16.7308 44.3067 17.8702 44.8001 19.0672 44.826C20.2643 44.852 21.4239 44.4086 22.2982 43.5905C23.1725 42.7725 23.6919 41.6448 23.7455 40.4486L23.75 40.2497V36.583C23.75 36.4627 23.7738 36.3435 23.8198 36.2323C23.8659 36.121 23.9334 36.02 24.0185 35.9349C24.1036 35.8497 24.2047 35.7822 24.3159 35.7362C24.4271 35.6901 24.5463 35.6664 24.6667 35.6664H39.3334C39.4538 35.6664 39.573 35.6901 39.6842 35.7362C39.7954 35.7822 39.8964 35.8497 39.9816 35.9349C40.0667 36.02 40.1342 36.121 40.1803 36.2323C40.2263 36.3435 40.25 36.4627 40.25 36.583V40.2497C40.2516 41.447 40.7216 42.5962 41.5596 43.4515C42.3975 44.3067 43.5368 44.8001 44.7339 44.826C45.9309 44.852 47.0906 44.4086 47.9649 43.5905C48.8392 42.7725 49.3586 41.6448 49.4121 40.4486L49.4167 40.2497V28.333C49.4167 23.2703 45.3128 19.1664 40.25 19.1664ZM40.7084 30.1664C41.073 30.1664 41.4228 30.3112 41.6806 30.5691C41.9385 30.827 42.0834 31.1767 42.0834 31.5414C42.0834 31.9061 41.9385 32.2558 41.6806 32.5137C41.4228 32.7715 41.073 32.9164 40.7084 32.9164C40.3437 32.9164 39.994 32.7715 39.7361 32.5137C39.4782 32.2558 39.3334 31.9061 39.3334 31.5414C39.3334 31.1767 39.4782 30.827 39.7361 30.5691C39.994 30.3112 40.3437 30.1664 40.7084 30.1664ZM23.2917 24.6664C23.6564 24.6664 24.0061 24.8112 24.264 25.0691C24.5218 25.327 24.6667 25.6767 24.6667 26.0414V27.4164H26.0417C26.4064 27.4164 26.7561 27.5612 27.014 27.8191C27.2718 28.077 27.4167 28.4267 27.4167 28.7914C27.4167 29.1561 27.2718 29.5058 27.014 29.7637C26.7561 30.0215 26.4064 30.1664 26.0417 30.1664H24.6667V31.5414C24.6667 31.9061 24.5218 32.2558 24.264 32.5137C24.0061 32.7715 23.6564 32.9164 23.2917 32.9164C22.927 32.9164 22.5773 32.7715 22.3194 32.5137C22.0616 32.2558 21.9167 31.9061 21.9167 31.5414V30.1664H20.5417C20.177 30.1664 19.8273 30.0215 19.5694 29.7637C19.3116 29.5058 19.1667 29.1561 19.1667 28.7914C19.1667 28.4267 19.3116 28.077 19.5694 27.8191C19.8273 27.5612 20.177 27.4164 20.5417 27.4164H21.9167V26.0414C21.9167 25.6767 22.0616 25.327 22.3194 25.0691C22.5773 24.8112 22.927 24.6664 23.2917 24.6664ZM43.4584 27.4164C43.823 27.4164 44.1728 27.5612 44.4306 27.8191C44.6885 28.077 44.8334 28.4267 44.8334 28.7914C44.8334 29.1561 44.6885 29.5058 44.4306 29.7637C44.1728 30.0215 43.823 30.1664 43.4584 30.1664C43.0937 30.1664 42.744 30.0215 42.4861 29.7637C42.2282 29.5058 42.0834 29.1561 42.0834 28.7914C42.0834 28.4267 42.2282 28.077 42.4861 27.8191C42.744 27.5612 43.0937 27.4164 43.4584 27.4164ZM37.9584 27.4164C38.323 27.4164 38.6728 27.5612 38.9306 27.8191C39.1885 28.077 39.3334 28.4267 39.3334 28.7914C39.3334 29.1561 39.1885 29.5058 38.9306 29.7637C38.6728 30.0215 38.323 30.1664 37.9584 30.1664C37.5937 30.1664 37.244 30.0215 36.9861 29.7637C36.7282 29.5058 36.5834 29.1561 36.5834 28.7914C36.5834 28.4267 36.7282 28.077 36.9861 27.8191C37.244 27.5612 37.5937 27.4164 37.9584 27.4164ZM40.7084 24.6664C41.073 24.6664 41.4228 24.8112 41.6806 25.0691C41.9385 25.327 42.0834 25.6767 42.0834 26.0414C42.0834 26.4061 41.9385 26.7558 41.6806 27.0137C41.4228 27.2715 41.073 27.4164 40.7084 27.4164C40.3437 27.4164 39.994 27.2715 39.7361 27.0137C39.4782 26.7558 39.3334 26.4061 39.3334 26.0414C39.3334 25.6767 39.4782 25.327 39.7361 25.0691C39.994 24.8112 40.3437 24.6664 40.7084 24.6664Z" fill="white" fill-opacity="0.95"/>
<defs>
<linearGradient id="paint0_linear_18_308" x1="22" y1="-15" x2="64" y2="64" gradientUnits="userSpaceOnUse">
<stop stop-color="#1BC0FB"/>
<stop offset="1" stop-color="#0B65F0"/>
</linearGradient>
</defs>
</svg>
